<svg xmlns="http://www.w3.org/2000/svg" viewBox="0 0 340 128" width="340" height="128">
  <path fill="#000000" d="M 254.992188 82.625 C 248.28125 83.46875 240.300781 84.347656 230.882812 85.265625 C 225.289062 85.8125 220.179688 90.027344 216.46875 94.105469 C 214.210938 96.589844 212.203125 99.265625 210.445312 102.125 C 215.269531 99.097656 223.246094 97.867188 232.449219 96.875 C 241.65625 95.882812 252.089844 95.132812 261.824219 93.070312 C 268.960938 91.554688 274.46875 88.917969 278.472656 85.839844 C 282.476562 82.761719 284.972656 79.242188 286.082031 75.964844 C 284.617188 77.265625 280.238281 78.667969 271.515625 80.210938 C 267.152344 80.980469 261.707031 81.785156 254.992188 82.625Z" fill-opacity="1"/>
  <path fill="#000000" d="M 285.886719 59.902344 C 281.183594 60.746094 275.621094 61.589844 269.007812 62.5 C 268.246094 62.605469 267.464844 62.710938 266.671875 62.820312 C 258.90625 63.867188 249.78125 65.035156 239.015625 66.347656 C 233.441406 67.027344 228.714844 70.929688 225.355469 74.730469 C 223.257812 77.105469 221.441406 79.679688 219.898438 82.445312 C 221.738281 81.597656 226.414062 80.5 228.875 80.039062 C 234.578125 78.972656 240.394531 78.332031 246.152344 77.675781 C 250.875 77.136719 255.480469 76.640625 259.96875 76.101562 C 267.132812 75.234375 273.917969 74.277344 280.492188 72.914062 C 281.773438 72.648438 283.03125 72.359375 284.265625 72.054688 C 290.804688 70.425781 295.839844 67.414062 299.578125 64.039062 C 303.605469 60.40625 306.121094 56.339844 307.28125 52.9375 C 304.195312 55.449219 298.878906 57.355469 289.566406 59.203125 C 288.402344 59.4375 287.175781 59.671875 285.886719 59.902344Z" fill-opacity="1"/>
  <path fill="#000000" d="M 280.203125 42.78125 C 270.988281 44.105469 260.101562 45.589844 247.152344 47.425781 C 235.65625 49.058594 229.351562 62.769531 229.351562 62.769531 C 231.070312 62.300781 237.957031 61.113281 239.980469 60.863281 C 254.023438 59.132812 265.496094 57.867188 275.664062 56.539062 C 285.832031 55.207031 294.6875 53.8125 303.496094 51.828125 C 310.972656 50.128906 316.613281 46.414062 320.683594 42.242188 C 324.757812 38.074219 327.269531 33.445312 328.484375 29.910156 C 323.109375 34.15625 315.726562 36.695312 303.210938 39.09375 C 296.957031 40.292969 289.417969 41.457031 280.203125 42.78125Z" fill-opacity="1"/>
  <path fill="#000000" d="M 339.238281 0.046875 C 338.3125 8.097656 318.953125 16.382812 246.535156 28.28125 C 224.347656 31.925781 218.042969 39.921875 212.851562 56.894531 C 208.464844 71.226562 200.402344 103.039062 199.066406 108.464844 C 205.25 104.382812 218.597656 72.722656 223.234375 62.441406 C 227.867188 52.160156 230.609375 44.429688 246.535156 42.152344 C 291.03125 35.785156 311.304688 31.871094 319.105469 29.070312 C 342.734375 20.589844 339.238281 0.046875 339.238281 0.046875Z" fill-opacity="1"/>
  <path fill="#000000" d="M 87.871094 82.625 C 94.582031 83.46875 102.5625 84.347656 111.984375 85.265625 C 117.574219 85.8125 122.683594 90.027344 126.394531 94.105469 C 128.652344 96.589844 130.660156 99.265625 132.417969 102.125 C 127.59375 99.097656 119.617188 97.867188 110.414062 96.875 C 101.207031 95.882812 90.773438 95.132812 81.039062 93.070312 C 73.90625 91.554688 68.394531 88.917969 64.390625 85.839844 C 60.386719 82.761719 57.890625 79.242188 56.78125 75.964844 C 58.246094 77.265625 62.625 78.667969 71.347656 80.210938 C 75.710938 80.980469 81.15625 81.785156 87.871094 82.625Z" fill-opacity="1"/>
  <path fill="#000000" d="M 56.976562 59.902344 C 61.679688 60.746094 67.242188 61.589844 73.855469 62.5 C 74.621094 62.605469 75.398438 62.710938 76.191406 62.820312 C 83.957031 63.867188 93.082031 65.035156 103.847656 66.347656 C 109.421875 67.027344 114.152344 70.929688 117.507812 74.730469 C 119.605469 77.105469 121.421875 79.679688 122.964844 82.445312 C 121.125 81.597656 116.449219 80.5 113.988281 80.039062 C 108.285156 78.972656 102.46875 78.332031 96.710938 77.675781 C 91.988281 77.136719 87.382812 76.640625 82.898438 76.101562 C 75.730469 75.234375 68.945312 74.277344 62.371094 72.914062 C 61.089844 72.648438 59.832031 72.359375 58.597656 72.054688 C 52.058594 70.425781 47.023438 67.414062 43.285156 64.039062 C 39.257812 60.40625 36.742188 56.339844 35.582031 52.9375 C 38.667969 55.449219 43.984375 57.355469 53.296875 59.203125 C 54.460938 59.4375 55.6875 59.671875 56.976562 59.902344Z" fill-opacity="1"/>
  <path fill="#000000" d="M 62.660156 42.78125 C 71.875 44.105469 82.761719 45.589844 95.710938 47.425781 C 107.207031 49.058594 113.511719 62.769531 113.511719 62.769531 C 111.792969 62.300781 104.90625 61.113281 102.882812 60.863281 C 88.839844 59.132812 77.367188 57.867188 67.199219 56.539062 C 57.03125 55.207031 48.175781 53.8125 39.367188 51.828125 C 31.890625 50.128906 26.253906 46.414062 22.179688 42.242188 C 18.105469 38.074219 15.59375 33.445312 14.378906 29.910156 C 19.753906 34.15625 27.136719 36.695312 39.652344 39.09375 C 45.90625 40.292969 53.449219 41.457031 62.660156 42.78125Z" fill-opacity="1"/>
  <path fill="#000000" d="M 3.625 0.046875 C 4.550781 8.097656 23.910156 16.382812 96.328125 28.28125 C 118.519531 31.925781 124.820312 39.921875 130.015625 56.894531 C 134.398438 71.226562 142.460938 103.039062 143.796875 108.464844 C 137.617188 104.382812 124.265625 72.722656 119.628906 62.441406 C 114.996094 52.160156 112.253906 44.429688 96.332031 42.152344 C 51.832031 35.785156 31.558594 31.871094 23.757812 29.070312 C 0.128906 20.589844 3.625 0.046875 3.625 0.046875Z" fill-opacity="1"/>
</svg>
