<svg xmlns="http://www.w3.org/2000/svg" xmlns:xlink="http://www.w3.org/1999/xlink" width="1020" zoomAndPan="magnify" viewBox="0 0 765 220.499993" height="294" preserveAspectRatio="xMidYMid meet" version="1.0"><defs><g/><clipPath id="de7d1d8841"><path d="M 199.066406 0 L 340 0 L 340 108.503906 L 199.066406 108.503906 Z M 199.066406 0 " clip-rule="nonzero"/></clipPath><clipPath id="6b6215a04f"><path d="M 46.015625 0 L 189.691406 0 L 189.691406 108.503906 L 46.015625 108.503906 Z M 46.015625 0 " clip-rule="nonzero"/></clipPath><clipPath id="20b712e363"><path d="M 3 0 L 143.691406 0 L 143.691406 108.503906 L 3 108.503906 Z M 3 0 " clip-rule="nonzero"/></clipPath><clipPath id="9adcce1daf"><rect x="0" width="144" y="0" height="109"/></clipPath><clipPath id="6ba841406a"><path d="M 342.851562 114.804688 L 354.828125 114.804688 L 354.828125 126.777344 L 342.851562 126.777344 Z M 342.851562 114.804688 " clip-rule="nonzero"/></clipPath><clipPath id="4630fda32c"><path d="M 0.320312 26 L 52 26 L 52 94 L 0.320312 94 Z M 0.320312 26 " clip-rule="nonzero"/></clipPath><clipPath id="d5b4b35afd"><rect x="0" width="354" y="0" height="102"/></clipPath></defs><path fill="#000000" d="M 254.992188 82.625 C 248.28125 83.46875 240.300781 84.347656 230.882812 85.265625 C 225.289062 85.8125 220.179688 90.027344 216.46875 94.105469 C 214.210938 96.589844 212.203125 99.265625 210.445312 102.125 C 215.269531 99.097656 223.246094 97.867188 232.449219 96.875 C 241.65625 95.882812 252.089844 95.132812 261.824219 93.070312 C 268.960938 91.554688 274.46875 88.917969 278.472656 85.839844 C 282.476562 82.761719 284.972656 79.242188 286.082031 75.964844 C 284.617188 77.265625 280.238281 78.667969 271.515625 80.210938 C 267.152344 80.980469 261.707031 81.785156 254.992188 82.625 Z M 254.992188 82.625 " fill-opacity="1" fill-rule="nonzero"/><path fill="#000000" d="M 285.886719 59.902344 C 281.183594 60.746094 275.621094 61.589844 269.007812 62.5 C 268.246094 62.605469 267.464844 62.710938 266.671875 62.820312 C 258.90625 63.867188 249.78125 65.035156 239.015625 66.347656 C 233.441406 67.027344 228.714844 70.929688 225.355469 74.730469 C 223.257812 77.105469 221.441406 79.679688 219.898438 82.445312 C 221.738281 81.597656 226.414062 80.5 228.875 80.039062 C 234.578125 78.972656 240.394531 78.332031 246.152344 77.675781 C 250.875 77.136719 255.480469 76.640625 259.96875 76.101562 C 267.132812 75.234375 273.917969 74.277344 280.492188 72.914062 C 281.773438 72.648438 283.03125 72.359375 284.265625 72.054688 C 290.804688 70.425781 295.839844 67.414062 299.578125 64.039062 C 303.605469 60.40625 306.121094 56.339844 307.28125 52.9375 C 304.195312 55.449219 298.878906 57.355469 289.566406 59.203125 C 288.402344 59.4375 287.175781 59.671875 285.886719 59.902344 Z M 285.886719 59.902344 " fill-opacity="1" fill-rule="nonzero"/><path fill="#000000" d="M 280.203125 42.78125 C 270.988281 44.105469 260.101562 45.589844 247.152344 47.425781 C 235.65625 49.058594 229.351562 62.769531 229.351562 62.769531 C 231.070312 62.300781 237.957031 61.113281 239.980469 60.863281 C 254.023438 59.132812 265.496094 57.867188 275.664062 56.539062 C 285.832031 55.207031 294.6875 53.8125 303.496094 51.828125 C 310.972656 50.128906 316.613281 46.414062 320.683594 42.242188 C 324.757812 38.074219 327.269531 33.445312 328.484375 29.910156 C 323.109375 34.15625 315.726562 36.695312 303.210938 39.09375 C 296.957031 40.292969 289.417969 41.457031 280.203125 42.78125 Z M 280.203125 42.78125 " fill-opacity="1" fill-rule="nonzero"/><g clip-path="url(#de7d1d8841)"><path fill="#000000" d="M 339.238281 0.046875 C 338.3125 8.097656 318.953125 16.382812 246.535156 28.28125 C 224.347656 31.925781 218.042969 39.921875 212.851562 56.894531 C 208.464844 71.226562 200.402344 103.039062 199.066406 108.464844 C 205.25 104.382812 218.597656 72.722656 223.234375 62.441406 C 227.867188 52.160156 230.609375 44.429688 246.535156 42.152344 C 291.03125 35.785156 311.304688 31.871094 319.105469 29.070312 C 342.734375 20.589844 339.238281 0.046875 339.238281 0.046875 Z M 339.238281 0.046875 " fill-opacity="1" fill-rule="nonzero"/></g><g clip-path="url(#6b6215a04f)"><g transform="matrix(1, 0, 0, 1, 46, 0)"><g clip-path="url(#9adcce1daf)"><path fill="#000000" d="M 87.871094 82.625 C 94.582031 83.46875 102.5625 84.347656 111.984375 85.265625 C 117.574219 85.8125 122.683594 90.027344 126.394531 94.105469 C 128.652344 96.589844 130.660156 99.265625 132.417969 102.125 C 127.59375 99.097656 119.617188 97.867188 110.414062 96.875 C 101.207031 95.882812 90.773438 95.132812 81.039062 93.070312 C 73.90625 91.554688 68.394531 88.917969 64.390625 85.839844 C 60.386719 82.761719 57.890625 79.242188 56.78125 75.964844 C 58.246094 77.265625 62.625 78.667969 71.347656 80.210938 C 75.710938 80.980469 81.15625 81.785156 87.871094 82.625 Z M 87.871094 82.625 " fill-opacity="1" fill-rule="nonzero"/><path fill="#000000" d="M 56.976562 59.902344 C 61.679688 60.746094 67.242188 61.589844 73.855469 62.5 C 74.621094 62.605469 75.398438 62.710938 76.191406 62.820312 C 83.957031 63.867188 93.082031 65.035156 103.847656 66.347656 C 109.421875 67.027344 114.152344 70.929688 117.507812 74.730469 C 119.605469 77.105469 121.421875 79.679688 122.964844 82.445312 C 121.125 81.597656 116.449219 80.5 113.988281 80.039062 C 108.285156 78.972656 102.46875 78.332031 96.710938 77.675781 C 91.988281 77.136719 87.382812 76.640625 82.898438 76.101562 C 75.730469 75.234375 68.945312 74.277344 62.371094 72.914062 C 61.089844 72.648438 59.832031 72.359375 58.597656 72.054688 C 52.058594 70.425781 47.023438 67.414062 43.285156 64.039062 C 39.257812 60.40625 36.742188 56.339844 35.582031 52.9375 C 38.667969 55.449219 43.984375 57.355469 53.296875 59.203125 C 54.460938 59.4375 55.6875 59.671875 56.976562 59.902344 Z M 56.976562 59.902344 " fill-opacity="1" fill-rule="nonzero"/><path fill="#000000" d="M 62.660156 42.78125 C 71.875 44.105469 82.761719 45.589844 95.710938 47.425781 C 107.207031 49.058594 113.511719 62.769531 113.511719 62.769531 C 111.792969 62.300781 104.90625 61.113281 102.882812 60.863281 C 88.839844 59.132812 77.367188 57.867188 67.199219 56.539062 C 57.03125 55.207031 48.175781 53.8125 39.367188 51.828125 C 31.890625 50.128906 26.253906 46.414062 22.179688 42.242188 C 18.105469 38.074219 15.59375 33.445312 14.378906 29.910156 C 19.753906 34.15625 27.136719 36.695312 39.652344 39.09375 C 45.90625 40.292969 53.449219 41.457031 62.660156 42.78125 Z M 62.660156 42.78125 " fill-opacity="1" fill-rule="nonzero"/><g clip-path="url(#20b712e363)"><path fill="#000000" d="M 3.625 0.046875 C 4.550781 8.097656 23.910156 16.382812 96.328125 28.28125 C 118.519531 31.925781 124.820312 39.921875 130.015625 56.894531 C 134.398438 71.226562 142.460938 103.039062 143.796875 108.464844 C 137.617188 104.382812 124.265625 72.722656 119.628906 62.441406 C 114.996094 52.160156 112.253906 44.429688 96.332031 42.152344 C 51.832031 35.785156 31.558594 31.871094 23.757812 29.070312 C 0.128906 20.589844 3.625 0.046875 3.625 0.046875 Z M 3.625 0.046875 " fill-opacity="1" fill-rule="nonzero"/></g></g></g></g><path fill="#000000" d="M 348.375 120.566406 C 348.613281 120.566406 348.816406 120.554688 348.984375 120.53125 C 349.152344 120.511719 349.292969 120.480469 349.40625 120.4375 C 349.617188 120.355469 349.765625 120.246094 349.847656 120.109375 C 349.925781 119.96875 349.96875 119.808594 349.96875 119.628906 C 349.96875 119.476562 349.9375 119.339844 349.871094 119.21875 C 349.808594 119.101562 349.699219 119.007812 349.542969 118.941406 C 349.445312 118.894531 349.316406 118.859375 349.167969 118.839844 C 349.015625 118.816406 348.828125 118.808594 348.605469 118.808594 L 347.855469 118.808594 L 347.855469 120.566406 Z M 351.046875 119.652344 C 351.046875 120.050781 350.9375 120.390625 350.714844 120.667969 C 350.496094 120.949219 350.152344 121.15625 349.691406 121.289062 L 349.691406 121.304688 L 351.394531 123.664062 L 350.136719 123.664062 L 348.574219 121.445312 L 347.855469 121.445312 L 347.855469 123.664062 L 346.804688 123.664062 L 346.804688 117.925781 L 348.550781 117.925781 C 348.835938 117.925781 349.105469 117.945312 349.355469 117.976562 C 349.605469 118.011719 349.816406 118.058594 349.992188 118.125 C 350.332031 118.253906 350.589844 118.445312 350.773438 118.699219 C 350.957031 118.949219 351.046875 119.269531 351.046875 119.652344 " fill-opacity="1" fill-rule="nonzero"/><g clip-path="url(#6ba841406a)"><path fill="#000000" d="M 354.191406 120.789062 C 354.191406 123.742188 351.789062 126.140625 348.839844 126.140625 C 345.890625 126.140625 343.488281 123.742188 343.488281 120.789062 C 343.488281 117.839844 345.890625 115.4375 348.839844 115.4375 C 351.789062 115.4375 354.191406 117.839844 354.191406 120.789062 Z M 354.355469 118.460938 C 354.054688 117.746094 353.621094 117.105469 353.074219 116.554688 C 352.523438 116.007812 351.882812 115.574219 351.171875 115.273438 C 350.433594 114.960938 349.648438 114.804688 348.839844 114.804688 C 348.03125 114.804688 347.246094 114.960938 346.507812 115.273438 C 345.796875 115.574219 345.15625 116.007812 344.605469 116.554688 C 344.058594 117.105469 343.625 117.746094 343.324219 118.460938 C 343.011719 119.199219 342.851562 119.980469 342.851562 120.789062 C 342.851562 121.597656 343.011719 122.382812 343.324219 123.121094 C 343.625 123.832031 344.058594 124.472656 344.605469 125.023438 C 345.15625 125.570312 345.796875 126.003906 346.507812 126.304688 C 347.246094 126.617188 348.03125 126.777344 348.839844 126.777344 C 349.648438 126.777344 350.433594 126.617188 351.171875 126.304688 C 351.882812 126.003906 352.523438 125.570312 353.074219 125.023438 C 353.621094 124.472656 354.054688 123.832031 354.355469 123.121094 C 354.667969 122.382812 354.828125 121.597656 354.828125 120.789062 C 354.828125 119.980469 354.667969 119.199219 354.355469 118.460938 " fill-opacity="1" fill-rule="nonzero"/></g><g transform="matrix(1, 0, 0, 1, 30, 118)"><g clip-path="url(#d5b4b35afd)"><g clip-path="url(#4630fda32c)"><g fill="#000000" fill-opacity="1"><g transform="translate(0.446304, 93.601169)"><g><path d="M 38.484375 -12.375 L 51.375 -12.375 L 51.375 -0.765625 C 51.375 -0.253906 51.066406 0 50.453125 0 L 39.5 0 C 36.132812 0 32.625 -0.25 28.96875 -0.75 C 25.320312 -1.257812 21.785156 -2.203125 18.359375 -3.578125 C 14.929688 -4.953125 11.828125 -6.890625 9.046875 -9.390625 C 6.273438 -11.890625 4.070312 -15.117188 2.4375 -19.078125 C 0.8125 -23.035156 0 -27.90625 0 -33.6875 C 0 -39.632812 0.828125 -44.628906 2.484375 -48.671875 C 4.140625 -52.710938 6.359375 -55.96875 9.140625 -58.4375 C 11.921875 -60.914062 15.035156 -62.800781 18.484375 -64.09375 C 21.941406 -65.382812 25.476562 -66.253906 29.09375 -66.703125 C 32.71875 -67.148438 36.1875 -67.375 39.5 -67.375 L 50.453125 -67.375 C 51.066406 -67.375 51.375 -67.117188 51.375 -66.609375 L 51.375 -40.171875 L 38.484375 -40.171875 L 38.484375 -55.078125 C 33.597656 -55.359375 29.234375 -54.8125 25.390625 -53.4375 C 21.546875 -52.0625 18.515625 -49.757812 16.296875 -46.53125 C 14.078125 -43.300781 12.96875 -39.019531 12.96875 -33.6875 C 12.96875 -29.53125 13.570312 -26.101562 14.78125 -23.40625 C 15.988281 -20.71875 17.585938 -18.613281 19.578125 -17.09375 C 21.578125 -15.582031 23.722656 -14.472656 26.015625 -13.765625 C 28.316406 -13.066406 30.5625 -12.644531 32.75 -12.5 C 34.945312 -12.363281 36.859375 -12.320312 38.484375 -12.375 Z M 38.484375 -12.375 "/></g></g></g></g><g fill="#000000" fill-opacity="1"><g transform="translate(69.590495, 93.601169)"><g><path d="M 52.890625 -1.015625 C 53.003906 -0.785156 52.972656 -0.554688 52.796875 -0.328125 C 52.628906 -0.109375 52.40625 0 52.125 0 L 40.515625 0 C 40.117188 0 39.863281 -0.164062 39.75 -0.5 L 26.4375 -38.0625 L 13.3125 -0.5 C 13.25 -0.164062 12.96875 0 12.46875 0 L 0.921875 0 C 0.535156 0 0.269531 -0.109375 0.125 -0.328125 C -0.0078125 -0.554688 -0.0234375 -0.785156 0.078125 -1.015625 L 25.609375 -66.875 C 25.710938 -67.207031 25.988281 -67.375 26.4375 -67.375 C 26.894531 -67.375 27.175781 -67.207031 27.28125 -66.875 Z M 52.890625 -1.015625 "/></g></g></g><g fill="#000000" fill-opacity="1"><g transform="translate(140.334792, 93.601169)"><g><path d="M 45.984375 -1.09375 C 46.097656 -0.8125 46.082031 -0.554688 45.9375 -0.328125 C 45.800781 -0.109375 45.5625 0 45.21875 0 L 33.1875 0 C 32.738281 0 32.457031 -0.164062 32.34375 -0.5 L 20.046875 -27.203125 L 12.796875 -27.203125 L 12.796875 -0.765625 C 12.796875 -0.253906 12.488281 0 11.875 0 L 0.84375 0 C 0.28125 0 0 -0.253906 0 -0.765625 L 0 -39.578125 L 22.65625 -39.578125 C 23.332031 -39.578125 24.226562 -39.632812 25.34375 -39.75 C 26.46875 -39.863281 27.578125 -40.171875 28.671875 -40.671875 C 29.765625 -41.179688 30.691406 -41.953125 31.453125 -42.984375 C 32.210938 -44.023438 32.59375 -45.472656 32.59375 -47.328125 C 32.59375 -49.179688 32.1875 -50.640625 31.375 -51.703125 C 30.5625 -52.773438 29.5625 -53.546875 28.375 -54.015625 C 27.195312 -54.492188 26.070312 -54.800781 25 -54.9375 C 23.9375 -55.082031 23.15625 -55.15625 22.65625 -55.15625 L 0 -55.15625 L 0 -66.609375 C 0 -67.117188 0.28125 -67.375 0.84375 -67.375 L 22.65625 -67.375 C 23.4375 -67.375 24.695312 -67.300781 26.4375 -67.15625 C 28.1875 -67.019531 30.140625 -66.640625 32.296875 -66.015625 C 34.460938 -65.398438 36.539062 -64.390625 38.53125 -62.984375 C 40.519531 -61.585938 42.160156 -59.625 43.453125 -57.09375 C 44.742188 -54.570312 45.390625 -51.316406 45.390625 -47.328125 C 45.390625 -43.898438 44.828125 -40.992188 43.703125 -38.609375 C 42.585938 -36.222656 41.085938 -34.269531 39.203125 -32.75 C 37.316406 -31.238281 35.253906 -30.0625 33.015625 -29.21875 C 35.148438 -24.445312 37.328125 -19.726562 39.546875 -15.0625 C 41.765625 -10.40625 43.910156 -5.75 45.984375 -1.09375 Z M 45.984375 -1.09375 "/></g></g></g><g fill="#000000" fill-opacity="1"><g transform="translate(203.92071, 93.601169)"><g><path d="M 35.125 -54.828125 L 48.09375 -54.828125 L 27.03125 -0.421875 C 26.914062 -0.140625 26.660156 0 26.265625 0 C 25.878906 0 25.601562 -0.140625 25.4375 -0.421875 L 0.078125 -66.359375 C -0.0234375 -66.640625 -0.0078125 -66.878906 0.125 -67.078125 C 0.269531 -67.273438 0.507812 -67.375 0.84375 -67.375 L 12.296875 -67.375 C 12.796875 -67.375 13.078125 -67.207031 13.140625 -66.875 L 26.28125 -30.15625 Z M 35.125 -54.828125 "/></g></g></g><g fill="#000000" fill-opacity="1"><g transform="translate(269.612036, 93.601169)"><g><path d="M 38.734375 -33.515625 C 38.734375 -31.773438 38.128906 -30.285156 36.921875 -29.046875 C 35.722656 -27.816406 34.222656 -27.203125 32.421875 -27.203125 C 30.679688 -27.203125 29.191406 -27.816406 27.953125 -29.046875 C 26.722656 -30.285156 26.109375 -31.773438 26.109375 -33.515625 C 26.109375 -35.316406 26.722656 -36.832031 27.953125 -38.0625 C 29.191406 -39.300781 30.679688 -39.921875 32.421875 -39.921875 C 34.222656 -39.921875 35.722656 -39.300781 36.921875 -38.0625 C 38.128906 -36.832031 38.734375 -35.316406 38.734375 -33.515625 Z M 64.84375 -33.765625 C 64.84375 -29.554688 64.171875 -25.441406 62.828125 -21.421875 C 61.484375 -17.410156 59.460938 -13.789062 56.765625 -10.5625 C 54.066406 -7.34375 50.695312 -4.773438 46.65625 -2.859375 C 42.613281 -0.953125 37.898438 0 32.515625 0 C 27.066406 0 22.304688 -0.953125 18.234375 -2.859375 C 14.160156 -4.773438 10.773438 -7.34375 8.078125 -10.5625 C 5.390625 -13.789062 3.367188 -17.410156 2.015625 -21.421875 C 0.671875 -25.441406 0 -29.554688 0 -33.765625 C 0 -37.984375 0.671875 -42.082031 2.015625 -46.0625 C 3.367188 -50.050781 5.390625 -53.644531 8.078125 -56.84375 C 10.773438 -60.039062 14.160156 -62.59375 18.234375 -64.5 C 22.304688 -66.414062 27.066406 -67.375 32.515625 -67.375 C 37.898438 -67.375 42.613281 -66.414062 46.65625 -64.5 C 50.695312 -62.59375 54.066406 -60.039062 56.765625 -56.84375 C 59.460938 -53.644531 61.484375 -50.050781 62.828125 -46.0625 C 64.171875 -42.082031 64.84375 -37.984375 64.84375 -33.765625 Z M 52.21875 -33.515625 C 52.21875 -36.265625 51.796875 -38.945312 50.953125 -41.5625 C 50.109375 -44.175781 48.867188 -46.535156 47.234375 -48.640625 C 45.609375 -50.742188 43.5625 -52.410156 41.09375 -53.640625 C 38.625 -54.878906 35.765625 -55.5 32.515625 -55.5 C 29.203125 -55.5 26.304688 -54.878906 23.828125 -53.640625 C 21.359375 -52.410156 19.296875 -50.742188 17.640625 -48.640625 C 15.984375 -46.535156 14.75 -44.175781 13.9375 -41.5625 C 13.125 -38.945312 12.71875 -36.265625 12.71875 -33.515625 C 12.71875 -30.816406 13.125 -28.175781 13.9375 -25.59375 C 14.75 -23.019531 15.984375 -20.691406 17.640625 -18.609375 C 19.296875 -16.535156 21.359375 -14.878906 23.828125 -13.640625 C 26.304688 -12.410156 29.203125 -11.796875 32.515625 -11.796875 C 35.765625 -11.796875 38.625 -12.410156 41.09375 -13.640625 C 43.5625 -14.878906 45.609375 -16.535156 47.234375 -18.609375 C 48.867188 -20.691406 50.109375 -23.019531 50.953125 -25.59375 C 51.796875 -28.175781 52.21875 -30.816406 52.21875 -33.515625 Z M 52.21875 -33.515625 "/></g></g></g></g></g></svg>